REM MD5 3ac7815dcf1c7ca6378bfe7ad9cf6e54
FILE "Eidos Demo Disc Volume 7 (USA).bin" BINARY
  TRACK 01 MODE2/2352
    INDEX 01 00:00:00
  TRACK 02 AUDIO
    INDEX 00 17:33:63
    INDEX 01 17:35:63
  TRACK 03 AUDIO
    INDEX 00 19:10:42
    INDEX 01 19:12:42
REM LEADOUT 19:18:38
